<svg width="52" height="50" viewBox="0 0 52 50" fill="none" xmlns="http://www.w3.org/2000/svg">
<path fill-rule="evenodd" clip-rule="evenodd" d="M26 0.152832C11.9317 0.152832 0.523804 11.5582 0.523804 25.629C0.523804 36.8855 7.82351 46.4346 17.946 49.8037C19.2188 50.04 19.6862 49.2511 19.6862 48.5782C19.6862 47.9707 19.6626 45.9638 19.6516 43.835C12.5641 45.3762 11.0686 40.8292 11.0686 40.8292C9.90968 37.8845 8.2399 37.1015 8.2399 37.1015C5.92802 35.5203 8.41413 35.5532 8.41413 35.5532C10.972 35.7325 12.3194 38.1785 12.3194 38.1785C14.5916 42.0724 18.2793 40.9469 19.733 40.2964C19.9617 38.6498 20.6219 37.5255 21.3505 36.8893C15.6919 36.2459 9.74304 34.061 9.74304 24.2993C9.74304 21.5179 10.7387 19.2452 12.3684 17.4607C12.1034 16.8194 11.2314 14.2283 12.6147 10.7191C12.6147 10.7191 14.7536 10.0344 19.6221 13.3305C21.6547 12.7656 23.8345 12.4817 26 12.472C28.1642 12.4817 30.3453 12.7648 32.3817 13.3297C37.2442 10.0336 39.3806 10.7183 39.3806 10.7183C40.7673 14.227 39.8953 16.8186 39.6308 17.4598C41.2643 19.2444 42.2527 21.517 42.2527 24.2984C42.2527 34.0834 36.2929 36.2375 30.6199 36.8686C31.5341 37.6592 32.3484 39.21 32.3484 41.5864C32.3484 44.9952 32.3188 47.7387 32.3188 48.5778C32.3188 49.2557 32.7778 50.0501 34.0688 49.7999C44.1853 46.4275 51.4766 36.8813 51.4766 25.629C51.4762 11.5591 40.0695 0.153254 26 0.153254V0.152832Z" fill="white"/>
<path d="M10.1729 36.7306C10.1168 36.8571 9.91768 36.8951 9.73627 36.8086C9.55065 36.7259 9.44729 36.5534 9.5072 36.4264C9.56204 36.2956 9.76159 36.2598 9.94595 36.3471C10.1316 36.4302 10.237 36.6044 10.1725 36.731L10.1729 36.7306ZM11.2048 37.8819C11.0837 37.9945 10.8462 37.9422 10.6851 37.7637C10.518 37.5866 10.4868 37.349 10.6104 37.2347C10.7361 37.1225 10.9665 37.1757 11.1335 37.3528C11.2997 37.5326 11.3327 37.768 11.2052 37.8823L11.2048 37.8819ZM12.2097 39.3487C12.0536 39.4576 11.798 39.3559 11.6402 39.1294C11.4841 38.9024 11.4841 38.6303 11.6444 38.5219C11.8018 38.413 12.0536 38.5113 12.2139 38.7357C12.3692 38.9657 12.3692 39.2378 12.2097 39.3483V39.3487ZM13.5855 40.7667C13.4462 40.9206 13.1484 40.8793 12.9307 40.6696C12.7084 40.4642 12.6464 40.1718 12.786 40.0182C12.9278 39.8638 13.2269 39.9069 13.4458 40.1153C13.6682 40.3203 13.7352 40.6131 13.5863 40.7662L13.5855 40.7667ZM15.4839 41.5897C15.4219 41.7893 15.1359 41.88 14.8469 41.7948C14.5587 41.7074 14.3702 41.4741 14.4292 41.2725C14.4883 41.0712 14.7764 40.9772 15.0671 41.0679C15.3552 41.1548 15.5438 41.3868 15.4839 41.5897ZM17.5692 41.742C17.5764 41.9521 17.3317 42.1259 17.0292 42.1302C16.7242 42.1373 16.4774 41.9669 16.4745 41.7602C16.4745 41.548 16.7141 41.3763 17.0187 41.3704C17.3212 41.3649 17.5697 41.5336 17.5697 41.7416L17.5692 41.742ZM19.509 41.4121C19.5453 41.6167 19.3348 41.8272 19.034 41.8834C18.7387 41.9382 18.4644 41.8108 18.4265 41.6079C18.3902 41.3978 18.6045 41.1873 18.8998 41.1328C19.201 41.0809 19.471 41.2046 19.509 41.4125V41.4121Z" fill="white"/>
</svg>
